<?xml version="1.0" standalone="no"?>
<!DOCTYPE svg PUBLIC "-//W3C//DTD SVG 20010904//EN"
 "http://www.w3.org/TR/2001/REC-SVG-20010904/DTD/svg10.dtd">
<svg version="1.0" xmlns="http://www.w3.org/2000/svg"
 width="937.000000pt" height="600.000000pt" viewBox="0 0 937.000000 600.000000"
 preserveAspectRatio="xMidYMid meet">

<g transform="translate(0.000000,600.000000) scale(0.100000,-0.100000)"
fill="#E3241C" stroke="none">
<path d="M3060 5756 c0 -135 -3 -246 -7 -246 -5 0 -17 7 -27 15 -37 28 -125 9
-140 -30 -12 -31 -6 -86 13 -123 22 -42 100 -120 148 -148 l33 -18 57 39 c137
95 183 234 92 280 -36 19 -63 19 -99 0 l-30 -16 -1 213 c-2 279 -1 272 -22
276 -16 3 -17 -16 -17 -242z m172 -253 c19 -17 24 -43 9 -43 -5 0 -24 6 -42
14 -19 7 -43 16 -54 20 -16 6 -17 9 -5 16 24 15 72 12 92 -7z"/>
<path d="M3832 5828 c-7 -7 -12 -21 -12 -31 0 -23 62 -87 83 -87 9 0 30 14 47
31 39 39 40 92 2 97 -13 2 -29 -1 -35 -7 -8 -6 -18 -6 -27 -1 -21 13 -44 12
-58 -2z m133 -8 c8 -13 -5 -13 -25 0 -13 8 -13 10 2 10 9 0 20 -4 23 -10z"/>
<path d="M2192 5530 c-2 -18 -5 -21 -11 -12 -14 23 -21 -82 -21 -341 l0 -248
-30 16 c-64 33 -134 5 -146 -59 -12 -67 62 -179 154 -233 43 -26 44 -26 76 -8
47 27 125 105 147 147 29 56 25 103 -10 139 -33 33 -70 37 -115 14 -15 -8 -30
-15 -32 -15 -2 0 -5 141 -7 313 -1 171 -3 301 -5 287z m148 -610 c38 -38 25
-49 -31 -26 -19 7 -43 16 -54 20 -16 6 -17 9 -5 16 25 16 69 11 90 -10z"/>
<path d="M1049 5327 c-1 -9 -3 -21 -4 -27 -1 -5 -3 -60 -4 -121 l-1 -112 -41
46 c-148 169 -439 133 -504 -63 -29 -87 -18 -188 32 -292 86 -180 285 -373
491 -477 l43 -22 67 37 c106 57 190 122 285 216 l87 87 0 -190 0 -190 -22 15
c-36 25 -104 21 -133 -9 -49 -48 -26 -134 56 -216 56 -57 103 -83 135 -75 35
9 140 111 163 160 28 56 26 88 -5 125 -21 26 -33 31 -68 31 -23 0 -52 -7 -64
-16 l-22 -15 0 218 0 218 46 91 c40 79 48 103 52 168 3 46 0 94 -8 121 -13 48
-63 125 -80 125 -17 0 -11 -54 10 -95 21 -42 26 -85 10 -85 -5 0 -10 5 -10 10
0 6 -4 10 -9 10 -5 0 -12 -41 -16 -91 -6 -76 -9 -88 -21 -78 -9 7 -14 31 -14
69 0 75 -9 120 -25 120 -7 0 -39 12 -71 27 -33 15 -63 28 -69 29 -26 5 -125
36 -125 40 0 2 19 13 41 25 69 35 153 36 232 4 14 -6 17 -2 17 22 0 26 -5 31
-39 41 -113 34 -243 1 -327 -83 l-52 -52 -4 123 c-2 81 -7 127 -15 136 -10 9
-13 9 -14 -5z m628 -1108 c14 -12 18 -49 5 -49 -4 0 -12 4 -17 8 -6 5 -30 14
-55 21 -42 12 -43 14 -25 28 21 15 68 11 92 -8z"/>
<path d="M3327 4983 c-4 -3 -7 -18 -7 -33 0 -29 55 -90 82 -90 23 0 80 68 76
92 -5 32 -33 46 -59 30 -15 -10 -24 -11 -32 -3 -12 12 -50 15 -60 4z m133 -13
c0 -5 -7 -7 -15 -4 -8 4 -15 8 -15 10 0 2 7 4 15 4 8 0 15 -4 15 -10z"/>
<path d="M8445 4964 c-20 -20 -12 -49 23 -86 33 -36 56 -35 93 1 50 50 29 121
-27 91 -19 -11 -27 -11 -36 -2 -16 16 -34 15 -53 -4z m133 -12 c2 -7 -2 -10
-12 -6 -9 3 -16 11 -16 16 0 13 23 5 28 -10z"/>
<path d="M2720 4596 l0 -227 -40 33 c-35 27 -51 33 -103 36 -49 2 -69 -1 -94
-17 -70 -44 -85 -140 -37 -238 34 -70 146 -184 227 -232 l57 -34 45 24 c55 29
144 104 191 161 51 61 76 114 81 177 8 99 -49 161 -150 161 -54 0 -79 -10
-119 -48 l-28 -26 0 216 c0 179 -3 218 -15 228 -13 11 -15 -14 -15 -214z m259
-213 c16 -16 33 -39 36 -52 6 -21 5 -23 -11 -16 -26 11 -178 65 -184 65 -3 0
4 7 14 15 11 8 41 15 68 15 38 0 53 -5 77 -27z"/>
<path d="M368 4474 c-5 -4 -8 -101 -8 -216 l0 -209 -40 33 c-35 27 -51 33
-103 36 -49 2 -69 -1 -94 -17 -74 -47 -88 -130 -40 -236 34 -72 157 -196 238
-239 l55 -29 66 42 c79 50 186 160 217 223 30 62 38 136 18 174 -29 56 -62 77
-126 82 -62 5 -103 -10 -141 -50 l-20 -22 -1 175 c0 178 -8 267 -21 253z m251
-410 c18 -15 31 -35 31 -49 l0 -24 -62 25 c-35 13 -81 29 -103 35 l-39 11 24
14 c43 23 114 18 149 -12z"/>
<path d="M8167 4302 c-37 -41 -9 -114 64 -168 18 -13 40 -24 49 -24 25 0 101
70 116 107 19 44 18 59 -6 83 -25 25 -61 26 -91 1 -23 -19 -24 -19 -48 0 -30
24 -63 24 -84 1z m209 -6 c28 -21 11 -30 -32 -16 -26 9 -33 15 -23 21 20 12
32 11 55 -5z"/>
<path d="M8710 4002 c-82 -26 -55 -139 50 -208 l40 -27 40 27 c84 55 125 150
82 189 -23 21 -71 22 -100 1 -16 -11 -27 -13 -35 -5 -20 16 -61 29 -77 23z
m194 -18 c15 -6 23 -34 10 -34 -4 0 -24 5 -46 12 -26 8 -35 14 -26 20 16 9 40
10 62 2z"/>
<path d="M852 3742 c-1 -7 -6 -10 -12 -7 -6 4 -10 -48 -11 -147 -1 -163 -5
-419 -8 -429 0 -4 -21 1 -45 9 -41 15 -47 15 -80 0 -51 -25 -66 -78 -38 -140
25 -58 83 -122 139 -155 39 -22 47 -24 73 -13 41 17 132 107 153 152 25 53 22
110 -6 136 -34 32 -75 36 -119 14 l-38 -20 -3 307 c-1 168 -3 300 -5 293z
m154 -603 c8 -6 14 -19 14 -29 0 -17 -4 -16 -57 3 -70 25 -71 26 -53 38 18 12
76 5 96 -12z"/>
<path d="M1142 3678 c-7 -7 -12 -20 -12 -30 0 -23 58 -88 79 -88 42 1 98 79
80 112 -11 20 -49 24 -67 6 -9 -9 -15 -9 -24 0 -7 7 -19 12 -28 12 -9 0 -21
-5 -28 -12z m138 -8 c0 -13 -11 -13 -30 0 -12 8 -11 10 8 10 12 0 22 -4 22
-10z"/>
<path d="M8037 3529 c-31 -18 -39 -55 -21 -97 18 -43 67 -97 107 -118 26 -14
30 -13 70 16 48 35 97 103 97 134 0 62 -79 90 -127 44 -13 -12 -23 -16 -23
-10 0 13 -51 42 -72 42 -7 0 -21 -5 -31 -11z m221 -21 c27 -27 13 -37 -28 -21
-22 9 -40 20 -40 25 0 12 54 10 68 -4z"/>
<path d="M2227 3463 c-31 -31 39 -132 82 -118 26 8 71 61 71 84 0 35 -51 56
-77 30 -8 -8 -13 -8 -17 0 -8 12 -49 15 -59 4z m130 -9 c-3 -3 -12 -4 -19 -1
-8 3 -5 6 6 6 11 1 17 -2 13 -5z"/>
<path d="M1830 3055 l0 -255 -37 24 c-75 49 -158 39 -200 -23 -46 -68 -17
-174 74 -272 51 -55 155 -129 182 -129 48 0 206 141 245 218 44 88 42 148 -7
200 -44 47 -143 48 -193 1 l-24 -22 0 135 c0 222 -11 378 -27 378 -10 0 -13
-48 -13 -255z m219 -240 c31 -15 64 -82 36 -72 -8 4 -48 18 -90 33 -73 26 -76
28 -53 40 31 18 73 17 107 -1z"/>
<path d="M8830 3297 c-73 -37 -62 -117 30 -208 75 -76 96 -81 157 -37 135 96
154 248 31 248 -32 0 -49 -6 -70 -27 -15 -15 -28 -21 -28 -15 0 14 -58 52 -80
52 -8 0 -26 -6 -40 -13z m264 -23 c9 -8 16 -22 16 -29 0 -12 -5 -12 -32 -1
-18 7 -41 16 -51 19 -10 4 -15 11 -12 17 10 16 62 12 79 -6z"/>
<path d="M399 2574 c-11 -13 -10 -22 6 -51 11 -19 32 -42 46 -51 25 -14 29
-14 56 6 39 28 60 76 43 97 -15 18 -51 20 -67 4 -8 -8 -13 -8 -17 0 -11 16
-52 13 -67 -5z m141 -4 c0 -5 -7 -7 -15 -4 -8 4 -15 8 -15 10 0 2 7 4 15 4 8
0 15 -4 15 -10z"/>
<path d="M7908 2463 c17 -2 47 -2 65 0 17 2 3 4 -33 4 -36 0 -50 -2 -32 -4z"/>
<path d="M7853 2440 c-86 -18 -200 -88 -300 -184 -79 -77 -93 -96 -93 -123 0
-35 8 -63 19 -63 3 0 54 46 111 103 203 199 343 226 645 126 164 -54 228 -69
311 -69 86 0 157 20 220 63 67 45 67 62 0 32 -31 -14 -87 -30 -125 -36 -88
-15 -178 3 -374 72 -78 28 -163 57 -188 64 -62 18 -175 25 -226 15z"/>
<path d="M7760 2430 c-8 -5 -10 -10 -5 -10 6 0 17 5 25 10 8 5 11 10 5 10 -5
0 -17 -5 -25 -10z"/>
<path d="M8170 2410 c8 -5 20 -10 25 -10 6 0 3 5 -5 10 -8 5 -19 10 -25 10 -5
0 -3 -5 5 -10z"/>
<path d="M8834 2398 l-19 -23 23 19 c12 11 22 21 22 23 0 8 -8 2 -26 -19z"/>
<path d="M8418 2323 c7 -3 16 -2 19 1 4 3 -2 6 -13 5 -11 0 -14 -3 -6 -6z"/>
<path d="M7086 2309 c-91 -13 -129 -36 -139 -84 -12 -56 1 -171 25 -228 49
-113 163 -133 213 -37 8 16 15 38 15 50 0 11 3 20 6 20 11 0 104 -74 104 -82
0 -4 -16 -31 -36 -58 -20 -28 -35 -52 -33 -53 56 -39 54 -39 90 14 19 27 36
49 39 49 3 0 70 -52 150 -116 189 -151 227 -176 234 -159 5 15 -61 76 -239
220 -60 49 -112 90 -114 92 -3 2 15 23 39 48 l44 44 -20 23 c-10 13 -20 25
-22 27 -1 3 -24 -17 -51 -43 -45 -44 -51 -47 -68 -35 -34 24 -86 70 -82 72 2
1 20 10 40 20 42 22 69 63 69 107 0 47 -51 94 -118 109 -59 12 -62 12 -146 0z
m89 -321 c-12 -40 -46 -68 -81 -68 -51 0 -48 14 12 43 29 15 54 31 54 37 0 5
5 10 11 10 6 0 8 -9 4 -22z"/>
<path d="M7530 2263 l-55 -58 58 55 c31 30 57 56 57 57 0 8 -10 -1 -60 -54z"/>
<path d="M8458 2313 c7 -3 16 -2 19 1 4 3 -2 6 -13 5 -11 0 -14 -3 -6 -6z"/>
<path d="M8508 2303 c6 -2 18 -2 25 0 6 3 1 5 -13 5 -14 0 -19 -2 -12 -5z"/>
<path d="M8638 2303 c7 -3 16 -2 19 1 4 3 -2 6 -13 5 -11 0 -14 -3 -6 -6z"/>
<path d="M1132 2273 c-13 -24 -1 -52 37 -88 31 -28 32 -29 59 -13 33 20 68 79
59 101 -7 19 -57 23 -74 6 -8 -8 -13 -8 -17 0 -11 17 -54 13 -64 -6z m131 0
c-7 -2 -19 -2 -25 0 -7 3 -2 5 12 5 14 0 19 -2 13 -5z"/>
<path d="M7163 1788 c-68 -75 -143 -217 -169 -319 -20 -77 -14 -183 14 -257
11 -27 60 -116 110 -198 169 -276 196 -366 165 -539 -4 -27 -3 -28 10 -15 24
25 47 110 47 176 0 86 -42 206 -117 329 -87 144 -121 216 -139 292 -36 154 12
311 150 493 38 49 34 60 -20 60 -19 0 -38 -8 -51 -22z"/>
<path d="M622 1548 c-22 -22 -13 -59 22 -94 19 -19 39 -34 46 -34 22 0 80 67
80 93 0 36 -24 53 -56 38 -17 -7 -31 -8 -44 -1 -24 13 -33 13 -48 -2z"/>
<path d="M5852 1084 c-46 -32 -18 -117 58 -169 l39 -27 36 22 c67 42 107 134
73 168 -17 17 -68 15 -89 -4 -17 -15 -20 -15 -45 5 -32 25 -43 26 -72 5z m198
-19 c7 -9 10 -18 7 -21 -5 -6 -67 23 -67 31 0 12 49 3 60 -10z"/>
<path d="M8704 1063 c16 -3 40 -12 53 -20 29 -19 26 -22 -67 -53 -76 -26 -91
-37 -65 -46 9 -4 48 3 85 15 71 23 100 20 100 -9 0 -12 -17 -25 -51 -39 -28
-13 -48 -27 -46 -34 4 -13 20 -13 80 -2 30 6 37 5 35 -6 -2 -9 4 -13 15 -11
15 3 17 0 8 -17 -6 -11 -20 -23 -32 -26 -16 -5 -18 -10 -8 -21 6 -8 19 -14 29
-14 10 0 23 -7 30 -15 7 -8 28 -15 48 -15 38 0 172 39 172 51 0 11 -272 225
-315 248 -22 11 -53 20 -70 20 l-30 -2 29 -4z"/>
<path d="M8576 896 c-3 -14 -9 -53 -13 -87 -5 -54 -8 -60 -26 -55 -17 4 -17 2
4 -21 35 -37 291 -245 296 -239 9 9 23 142 18 167 -5 21 -10 25 -30 21 -23 -4
-25 -1 -25 31 0 19 -6 40 -14 47 -12 9 -17 4 -26 -30 -11 -39 -12 -41 -29 -26
-10 9 -21 13 -24 9 -4 -3 -7 21 -7 54 0 40 -5 65 -14 72 -12 10 -15 4 -21 -31
-9 -60 -15 -78 -25 -78 -5 0 -7 6 -4 14 3 8 1 17 -5 21 -7 4 -11 -4 -11 -19 0
-14 -5 -26 -11 -26 -8 0 -10 30 -8 97 3 65 0 97 -7 100 -7 2 -14 -7 -18 -21z"/>
<path d="M412 758 c-19 -19 -14 -44 13 -77 34 -39 60 -47 91 -26 34 22 59 81
43 101 -13 16 -55 19 -64 4 -4 -7 -12 -7 -25 0 -25 13 -43 13 -58 -2z m138 -7
c0 -5 -9 -7 -20 -4 -11 3 -20 7 -20 9 0 2 9 4 20 4 11 0 20 -4 20 -9z"/>
<path d="M7393 665 c0 -27 2 -38 4 -22 2 15 2 37 0 50 -2 12 -4 0 -4 -28z"/>
<path d="M5501 594 c-33 -42 -24 -90 32 -166 26 -35 100 -88 124 -88 30 1 112
68 144 117 37 59 39 110 6 141 -32 30 -87 29 -124 -2 l-29 -24 -23 24 c-34 35
-102 34 -130 -2z m287 0 c12 -8 22 -22 22 -30 0 -17 0 -17 -41 0 -19 7 -43 16
-54 20 -16 6 -17 9 -5 16 22 14 53 12 78 -6z"/>
<path d="M7272 585 c0 -16 2 -22 5 -12 2 9 2 23 0 30 -3 6 -5 -1 -5 -18z"/>
<path d="M6176 445 c-48 -45 -26 -126 57 -202 84 -78 100 -78 183 -1 97 89
112 186 35 218 -39 16 -76 6 -107 -27 -13 -14 -24 -21 -24 -14 0 17 -61 51
-91 51 -14 0 -38 -11 -53 -25z m288 -11 c9 -8 16 -21 16 -29 0 -10 -13 -8 -54
8 -30 12 -52 25 -50 29 9 14 72 8 88 -8z"/>
</g>
</svg>
